<svg width="17" height="17" viewBox="0 0 17 17" fill="none" xmlns="http://www.w3.org/2000/svg">
<path d="M15.0392 17H14.928C2.08469 16.2612 0.261132 5.42039 0.00622548 2.11192C-0.0143139 1.85469 0.0160875 1.59592 0.0956877 1.35046C0.175288 1.105 0.302522 0.87766 0.470101 0.681472C0.637679 0.485285 0.842308 0.324104 1.07226 0.207164C1.30222 0.0902249 1.55298 0.0198258 1.81018 6.1304e-07H5.41154C5.67335 -0.000252925 5.9292 0.0781416 6.14596 0.225029C6.36271 0.371917 6.53038 0.580531 6.62725 0.823847L7.62073 3.26923C7.71638 3.50693 7.74012 3.76751 7.689 4.0186C7.63787 4.26968 7.51413 4.50021 7.33314 4.68154L5.94096 6.08731C6.15843 7.32357 6.75025 8.46317 7.63635 9.35193C8.52245 10.2407 9.66007 10.8357 10.8953 11.0565L12.3136 9.65077C12.4976 9.47172 12.7302 9.35082 12.9824 9.30314C13.2347 9.25547 13.4953 9.28314 13.7319 9.38269L16.196 10.37C16.4356 10.47 16.64 10.639 16.7832 10.8556C16.9263 11.0722 17.0018 11.3265 17 11.5862V15.0385C17 15.5587 16.7934 16.0576 16.4257 16.4255C16.0579 16.7933 15.5592 17 15.0392 17ZM1.96704 1.30769C1.79369 1.30769 1.62745 1.37658 1.50487 1.4992C1.3823 1.62182 1.31344 1.78813 1.31344 1.96154V2.01385C1.61409 5.88462 3.54223 15.0385 14.9999 15.6923C15.0858 15.6976 15.1719 15.6859 15.2532 15.6579C15.3345 15.6298 15.4095 15.586 15.4739 15.5289C15.5383 15.4718 15.5907 15.4026 15.6283 15.3251C15.6659 15.2477 15.6878 15.1636 15.6928 15.0777V11.5862L13.2287 10.5988L11.3528 12.4623L11.0391 12.4231C5.35272 11.7104 4.58146 6.02192 4.58146 5.96308L4.54225 5.64923L6.39849 3.77269L5.41808 1.30769H1.96704Z" fill="#F8F8F8"/>
</svg>
