<svg width="18" height="21" viewBox="0 0 18 21" fill="none" xmlns="http://www.w3.org/2000/svg">
<path d="M8.27669 1.35635C8.53972 1.09646 8.88796 0.95166 9.24994 0.95166C9.61191 0.95166 9.96016 1.09646 10.2232 1.35635L17.0855 8.13569C17.5105 8.55468 17.7499 9.13949 17.7499 9.74946V17.996C17.7499 18.585 17.5261 19.1499 17.1275 19.5663C16.729 19.9828 16.1885 20.2168 15.6249 20.2168H12.7916C12.5124 20.2168 12.236 20.1593 11.9781 20.0476C11.7202 19.9359 11.4858 19.7722 11.2885 19.5658C11.0912 19.3594 10.9347 19.1144 10.828 18.8448C10.7212 18.5752 10.6664 18.2863 10.6666 17.9945V14.2932C10.6666 14.0969 10.592 13.9086 10.4591 13.7698C10.3263 13.6309 10.1461 13.5529 9.95827 13.5529H8.54161C8.35374 13.5529 8.17358 13.6309 8.04074 13.7698C7.9079 13.9086 7.83327 14.0969 7.83327 14.2932V17.9945C7.83327 18.5835 7.60939 19.1484 7.21087 19.5649C6.81236 19.9813 6.27186 20.2153 5.70827 20.2153H2.87494C2.31135 20.2153 1.77085 19.9813 1.37234 19.5649C0.973822 19.1484 0.749939 18.5835 0.749939 17.9945V9.74798C0.749939 9.13801 0.990772 8.5532 1.41577 8.13421L8.27669 1.35339V1.35635ZM9.24994 2.43121L2.38761 9.21203C2.31794 9.28105 2.26243 9.36415 2.22444 9.45629C2.18644 9.54842 2.16677 9.64766 2.16661 9.74798V17.9945C2.16661 18.1909 2.24123 18.3791 2.37407 18.518C2.50691 18.6568 2.68708 18.7348 2.87494 18.7348H5.70827C5.89613 18.7348 6.0763 18.6568 6.20914 18.518C6.34198 18.3791 6.41661 18.1909 6.41661 17.9945V14.2932C6.41661 13.7042 6.64049 13.1393 7.039 12.7229C7.43752 12.3064 7.97802 12.0724 8.54161 12.0724H9.95827C10.5219 12.0724 11.0624 12.3064 11.4609 12.7229C11.8594 13.1393 12.0833 13.7042 12.0833 14.2932V17.9945C12.0833 18.1909 12.1579 18.3791 12.2907 18.518C12.4236 18.6568 12.6037 18.7348 12.7916 18.7348H15.6249C15.8128 18.7348 15.993 18.6568 16.1258 18.518C16.2586 18.3791 16.3333 18.1909 16.3333 17.9945V9.74798C16.3333 9.64741 16.3137 9.54789 16.2757 9.45549C16.2377 9.36309 16.1821 9.27975 16.1123 9.21055L9.24994 2.43121Z" fill="white"/>
</svg>
