<svg width="14" height="14" viewBox="0 0 14 14" fill="none" xmlns="http://www.w3.org/2000/svg">
<path d="M1.10833 8.035C0.802332 8.035 0.550332 7.936 0.352332 7.738C0.154332 7.54 0.0553321 7.297 0.0553321 7.009C0.0553321 6.721 0.154332 6.487 0.352332 6.307C0.550332 6.109 0.802332 6.01 1.10833 6.01H12.1783C12.4843 6.01 12.7363 6.109 12.9343 6.307C13.1323 6.505 13.2313 6.748 13.2313 7.036C13.2313 7.324 13.1323 7.567 12.9343 7.765C12.7363 7.945 12.4843 8.035 12.1783 8.035H1.10833ZM6.61633 13.678C6.29233 13.678 6.01333 13.57 5.77933 13.354C5.56333 13.138 5.45533 12.868 5.45533 12.544V1.393C5.45533 1.051 5.56333 0.772 5.77933 0.555999C6.01333 0.339999 6.30133 0.231999 6.64333 0.231999C6.98533 0.231999 7.25533 0.339999 7.45333 0.555999C7.66933 0.772 7.77733 1.051 7.77733 1.393V12.517C7.77733 12.859 7.66933 13.138 7.45333 13.354C7.23733 13.57 6.95833 13.678 6.61633 13.678Z" fill="#E97000"/>
</svg>
